<svg id="Capa_1" enable-background="new 0 0 512 512" height="512" viewBox="0 0 512 512" width="512" xmlns="http://www.w3.org/2000/svg"><g><path d="m425.504 172.555c0-25.508-18.909-46.589-43.473-50.019v-36.516c0-41.348-33.519-74.867-74.867-74.867h-27.451c-9.661-7.009-21.536-11.153-34.384-11.153h-37.899c-42.781 0-77.461 34.681-77.461 77.461v45.075c-24.564 3.429-43.473 24.51-43.473 50.019 0 22.32 14.481 41.245 34.555 47.929-.676 3.147-1.034 6.412-1.034 9.761 0 25.603 20.755 46.358 46.358 46.358 11.047 0 21.176-3.881 29.137-10.334-21.913-15.504-36.261-41.026-36.261-69.851v-54.768c0-7.969 6.483-14.453 14.453-14.453h58.108c15.291 0 29.249-8.387 36.429-21.887l4.887-9.189c2.515-4.729 7.404-7.667 12.761-7.667h36.957c16.49 0 29.905 13.416 29.905 29.906v78.059c0 28.831-14.354 54.358-36.274 69.861 7.963 6.453 18.102 10.324 29.15 10.324 25.603 0 46.358-20.755 46.358-46.358 0-3.349-.358-6.614-1.034-9.761 20.073-6.684 34.553-25.61 34.553-47.93z" fill="#fe9901"/><path d="m120.199 234.402c1.492 16.964 12.28 31.344 27.134 38.089 7.25-3.891 15.528-6.105 24.316-6.105h8.505c-10.573-8.494-17.346-21.522-17.346-36.141 0-2.454.196-4.861.565-7.211h-18.118c-17.069 0-30.906-13.837-30.906-30.905v-11.502c0-12.969 7.991-24.064 19.315-28.65 5.588-12.504 16.104-22.322 29.085-26.976 5.986-2.146 10.01-7.778 10.01-14.138v-33.402c0-42.002 33.435-76.172 75.139-77.403-.851-.036-1.707-.058-2.569-.058h-37.899c-42.781 0-77.461 34.681-77.461 77.461v45.075c-24.564 3.429-43.473 24.51-43.473 50.019 0 22.32 14.481 41.245 34.555 47.929-.954 4.436-1.275 9.107-.852 13.918z" fill="#fb8801"/><g><path d="m429.07 512h-346.14c-5.69 0-10.302-4.612-10.302-10.302v-143.72c0-28.448 23.061-51.509 51.509-51.509h263.726c28.448 0 51.509 23.061 51.509 51.509v143.72c0 5.69-4.612 10.302-10.302 10.302z" fill="#f3f0f3"/></g><g><path d="m114.256 501.698v-143.72c0-10.281 3.024-19.849 8.213-27.889v-4.695c0-6.619 1.112-12.98 3.131-18.926h-1.463c-28.448 0-51.509 23.061-51.509 51.509v143.72c0 5.69 4.612 10.302 10.302 10.302h41.628c-5.69.001-10.302-4.611-10.302-10.301z" fill="#e2dee2"/></g><g fill="#a79ba7"><path d="m190.312 281.386 6.529-14.14-.69-.479c-.18-.125-.355-.256-.534-.382h-14.139c-32.537 0-59.009 26.471-59.009 59.009v57.459c2.408-.576 4.918-.89 7.5-.89s5.092.314 7.5.89v-57.459c0-24.267 19.742-44.009 44.009-44.009h8.834z"/><path d="m389.531 375.701v-50.306c0-32.538-26.472-59.009-59.009-59.009h-14.139c-.179.126-.354.257-.534.382l-.69.479 6.529 14.14h8.835c24.267 0 44.009 19.742 44.009 44.009v50.306c-17.598 3.498-30.905 19.055-30.905 37.665v72.364c0 4.142 3.357 7.5 7.5 7.5h14.333c4.143 0 7.5-3.358 7.5-7.5s-3.357-7.5-7.5-7.5h-6.833v-64.864c0-12.906 10.5-23.405 23.405-23.405s23.405 10.5 23.405 23.405v64.864h-6.833c-4.143 0-7.5 3.358-7.5 7.5s3.357 7.5 7.5 7.5h14.333c4.143 0 7.5-3.358 7.5-7.5v-72.364c-.001-18.611-13.308-34.167-30.906-37.666z"/></g><g fill="#e2dee2"><path d="m204.634 271.9c-2.977-1.592-5.855-3.347-8.611-5.266l-42.874 92.856c-.676 1.464-.113 3.201 1.293 3.99l50.193 28.186v-119.766z"/><path d="m358.851 359.49-42.874-92.856c-2.756 1.92-5.634 3.675-8.611 5.266v119.766l50.193-28.186c1.405-.789 1.968-2.527 1.292-3.99z"/></g><g fill="#fff"><path d="m204.634 366.421-47.409 38.374c-1.096.887-1.453 2.404-.867 3.686l47.276 103.519 1-3z"/><path d="m354.775 404.795-47.409-38.374v142.579l1 3 47.276-103.519c.586-1.282.229-2.799-.867-3.686z"/></g><g><g><circle cx="129.969" cy="414.219" fill="#b5adb6" r="25.754"/></g><g><path d="m124.745 414.219c0-10.574 6.375-19.655 15.489-23.622-3.146-1.369-6.616-2.133-10.265-2.133-14.224 0-25.755 11.531-25.755 25.754 0 14.224 11.531 25.755 25.755 25.755 3.65 0 7.119-.764 10.265-2.133-9.114-3.965-15.489-13.046-15.489-23.621z" fill="#a79ba7"/></g><g><path d="m129.969 447.474c-18.337 0-33.255-14.918-33.255-33.254s14.918-33.254 33.255-33.254 33.255 14.918 33.255 33.254-14.918 33.254-33.255 33.254zm0-51.509c-10.065 0-18.255 8.189-18.255 18.254s8.189 18.254 18.255 18.254 18.255-8.189 18.255-18.254-8.19-18.254-18.255-18.254z" fill="#554e56"/></g></g><g><path d="m203.634 305.306h104.732v206.694h-104.732z" fill="#05e39c"/></g><path d="m203.634 388.743v-.001 123.258h21.46v-143.269z" fill="#0ed290"/><path d="m267.215 281.954h-22.43c-14.909 0-28.934-3.843-41.151-10.577v117.366l52.366-48.832 52.366 48.832v-117.366c-12.218 6.734-26.242 10.577-41.151 10.577z" fill="#0ed290"/><path d="m256 338.543-7.5 6.994v166.463h15v-166.463z" fill="#00c285"/><path d="m267.215 281.954h-22.43c-14.909 0-28.934-3.843-41.151-10.577v117.366l52.366-48.832 52.366 48.832v-117.366c-12.218 6.734-26.242 10.577-41.151 10.577z" fill="#0ed290"/><g><path d="m203.634 272.559v116.184l21.461-20.012v-88.055c-7.582-1.765-14.79-4.504-21.461-8.117z" fill="#00c285"/></g><path d="m267.215 281.954h-22.43c-6.897 0-13.597-.842-20.025-2.391l26.799 51.77c1.865 3.602 7.016 3.602 8.881 0l26.799-51.77c-6.427 1.548-13.128 2.391-20.024 2.391z" fill="#ffbd86"/><path d="m244.785 282.954c-6.679 0-13.172-.782-19.416-2.214l26.19 50.594c1.865 3.602 7.016 3.602 8.881 0l8.345-16.12-16.7-32.26z" fill="#f6a96c"/><g><path d="m159.25 196.418v-46.697h-13.994c-17.069 0-30.906 13.837-30.906 30.905v11.502c0 17.069 13.837 30.905 30.906 30.905h18.256c-2.753-8.382-4.262-17.323-4.262-26.615z" fill="#f6a96c"/><path d="m366.744 149.722h-13.994v46.697c0 9.292-1.509 18.233-4.262 26.616h18.256c17.069 0 30.906-13.837 30.906-30.905v-11.502c0-17.069-13.837-30.906-30.906-30.906z" fill="#ffbd86"/></g><g><path d="m272.244 95.651-4.887 9.19c-6.989 13.143-20.66 21.357-35.546 21.357h-58.108c-8.534 0-15.453 6.918-15.453 15.453v54.768c0 47.792 38.743 86.535 86.535 86.535h22.43c47.792 0 86.535-38.743 86.535-86.535v-78.059c0-17.069-13.837-30.905-30.905-30.905h-36.957c-5.714-.001-10.961 3.151-13.644 8.196z" fill="#fed2a4"/></g><g><g><path d="m190.303 196.418v-54.768c0-8.534 6.919-15.453 15.453-15.453h-32.053c-8.534 0-15.453 6.918-15.453 15.453v54.768c0 47.792 38.743 86.535 86.535 86.535h22.43c1.615 0 3.218-.052 4.812-.14-45.553-2.497-81.724-40.218-81.724-86.395z" fill="#ffbd86"/></g></g><g><g><path d="m209.642 184.558c-4.143 0-7.5-3.358-7.5-7.5v-22.11c0-4.142 3.357-7.5 7.5-7.5s7.5 3.358 7.5 7.5v22.11c0 4.142-3.358 7.5-7.5 7.5z" fill="#a44f3e"/></g><g><path d="m302.358 184.558c-4.143 0-7.5-3.358-7.5-7.5v-22.11c0-4.142 3.357-7.5 7.5-7.5s7.5 3.358 7.5 7.5v22.11c0 4.142-3.357 7.5-7.5 7.5z" fill="#a44f3e"/></g></g><g><path d="m256 206.668h-11.637c-2.424 0-4.697-1.171-6.105-3.144-1.407-1.973-1.775-4.504-.986-6.796l11.637-33.824c1.348-3.916 5.615-6.001 9.531-4.652 3.917 1.347 6 5.615 4.652 9.532l-8.217 23.884h1.125c4.143 0 7.5 3.358 7.5 7.5s-3.357 7.5-7.5 7.5z" fill="#a44f3e"/></g><g><path d="m256 250.379c-11.158 0-22.317-4.248-30.813-12.743-2.929-2.929-2.929-7.678 0-10.606 2.93-2.929 7.678-2.929 10.607 0 11.141 11.142 29.27 11.142 40.41 0 2.93-2.929 7.678-2.929 10.607 0s2.929 7.678 0 10.606c-8.494 8.495-19.653 12.743-30.811 12.743z" fill="#a44f3e"/></g></g></svg>