<?xml version="1.0"?>
<svg xmlns="http://www.w3.org/2000/svg" xmlns:xlink="http://www.w3.org/1999/xlink" xmlns:svgjs="http://svgjs.com/svgjs" version="1.1" width="512" height="512" x="0" y="0" viewBox="0 0 24 24" style="enable-background:new 0 0 512 512" xml:space="preserve" class=""><g><g xmlns="http://www.w3.org/2000/svg" clip-rule="evenodd" fill="rgb(0,0,0)" fill-rule="evenodd"><path d="m9.86155 2.59967c.35605-.77724 1.09265-1.34967 2.01715-1.34967.9244 0 1.6611.57243 2.0171 1.34967.2916-.15181.623-.23856.9829-.23856 1.2942 0 2.2204 1.12197 2.2493 2.35712.2314-.08696.4832-.1349.7507-.1349 1.315 0 2.25 1.15827 2.25 2.41667v3c0 .4142-.3358.75-.75.75s-.75-.3358-.75-.75v-3c0-.58254-.4082-.91667-.75-.91667-.3419 0-.75.33413-.75.91667v2c0 .41421-.3358.75-.75.75s-.75-.33579-.75-.75v-4.22222c0-.58255-.4082-.91667-.75-.91667-.3419 0-.75.33412-.75.91667v5.55552c0 .4142-.3358.75-.75.75s-.75-.3358-.75-.75v-6.66663c0-.58255-.4082-.91667-.75-.91667-.3419 0-.75.33412-.75.91667v7.77773c0 .4143-.3358.75-.75.75-.41423 0-.75002-.3357-.75002-.75v-6.66662c0-.58255-.40816-.91667-.75-.91667s-.75.33412-.75.91667v9.44442c0 .3134-.19488.5938-.48864.703s-.62446.0243-.8292-.213l-2.8121-3.2591c-.28783-.3149-.71556-.3133-1.00193.0049-.32908.3657-.32908.9879 0 1.3536.01187.0132.02327.0268.03418.0408l2.43932 3.1311.0125.0165 1.437 1.9535c.01691.023.0325.0469.04668.0717 1.16436 2.033 3.15571 3.2248 5.25481 3.2248h.1574c.4142 0 .75.3358.75.75s-.3358.75-.75.75h-.1574c-2.67364 0-5.12555-1.5097-6.53458-3.9414l-1.40607-1.9114-2.41813-3.1039c-.82309-.9373-.81664-2.4099.01935-3.3387.88372-.98194 2.35254-.98194 3.23626 0l.01037.0117 1.50018 1.7387v-7.42722c0-1.25841.93498-2.41667 2.25-2.41667.35988 0 .69129.08675.98287.23856z" fill="#ffffff" data-original="#000000" style="" class=""/><path d="m16.5756 11.333c.2786-.0697.5702-.0697.8488 0l3.7575.9394c.3339.0834.5681.3834.5681.7276v3c0 2.1246-1.0003 4.1252-2.7 5.4l-1 .75c-.6222.4667-1.4778.4667-2.1 0l-1-.75c-1.6997-1.2748-2.7-3.2754-2.7-5.4v-3c0-.3442.2342-.6442.5681-.7276zm2.7104 5.443c.293-.2928.2932-.7676.0004-1.0606-.2928-.2931-.7677-.2932-1.0607-.0004l-1.2225 1.2216-.7884-.7974c-.2912-.2946-.7661-.2973-1.0606-.0061-.2946.2913-.2973.7661-.006 1.0607l1.3185 1.3335c.1403.142.3314.2221.531.2227s.3912-.0784.5324-.2194z" fill="#ffffff" data-original="#000000" style="" class=""/></g></g></svg>
