<svg height="512" viewBox="0 0 512 512" width="512" xmlns="http://www.w3.org/2000/svg"><g id="Flat"><path d="m472 168-4.528-3.623a344.366 344.366 0 0 0 -77.089-46.584l-70.483-27.954a21.915 21.915 0 0 0 -26.315 6.928 21.914 21.914 0 0 0 4.965 31.1l61.45 40.133h-168a24 24 0 0 0 -24 24 24 24 0 0 0 24 24h-8a24 24 0 0 0 -24 24 24 24 0 0 0 24 24h16a24 24 0 0 0 -24 24 24 24 0 0 0 24 24h24a24 24 0 0 0 -24 24 24 24 0 0 0 24 24h146.334c35.292 0 70.1-16.217 101.666-32h24v-160z" fill="#fdb683"/><g fill="#f6a368"><path d="m192 208h120v16h-120z"/><path d="m192 256h120v16h-120z"/><path d="m216 304h96v16h-96z"/><path d="m455.2 232.04c-29.964 2.99-53.673-6.879-70.445-29.357a103.882 103.882 0 0 1 -16.534-34.683h-16.394l.328 1.569a117.29 117.29 0 0 0 19.405 42.176c12.739 17.29 35.53 36.817 73.463 36.817q5.659 0 11.773-.6z"/></g><circle cx="236" cy="124" fill="#4db6e4" r="20"/><path d="m262.367 488-78.367-384h-64l-78.367 384z" fill="#4db6e4"/><path d="m104 24h-88v56h80a24 24 0 0 1 24 24h64a80 80 0 0 0 -80-80z" fill="#dfdfdd"/><path d="m408 296-4.528-3.622a344.333 344.333 0 0 0 -77.089-46.585l-70.483-27.954a21.915 21.915 0 0 0 -26.315 6.928 21.914 21.914 0 0 0 4.965 31.1l61.45 40.133h-168a24 24 0 0 0 -24 24 24 24 0 0 0 24 24h-8a24 24 0 0 0 -24 24 24 24 0 0 0 24 24h16a24 24 0 0 0 -24 24 24 24 0 0 0 24 24h24a24 24 0 0 0 -24 24 24 24 0 0 0 24 24h146.334c35.292 0 78.1-16.217 109.666-32h80v-160z" fill="#fdc8a2"/><g fill="#fcb079"><path d="m120 336h120v16h-120z"/><path d="m120 384h120v16h-120z"/><path d="m144 432h96v16h-96z"/></g><path d="m85.917 189h108.167v15.999h-108.167z" fill="#3ba5d3" transform="matrix(.055 -.998 .998 .055 -64.456 325.867)"/><path d="m164.5 184.859h16.001v87.281h-16.001z" fill="#3ba5d3" transform="matrix(.997 -.08 .08 .997 -17.77 14.571)"/><circle cx="52" cy="340" fill="#4db6e4" r="20"/><circle cx="316" cy="396" fill="#4db6e4" r="20"/></g></svg>